REM DIRINDEX 1\2\4,1\2\5,1\2\6,1\3\7,1\3\8,1\3\9,1\3\10
REM DIRNAME folder01,folder02,folder03,folder04,folder05,folder06,folder07,folder08,folder09,folder10
TITLE ""
FILE "b_083.mp3" MP3
  TRACK 01 AUDIO
    TITLE "0:"
    INDEX 01 00:00:00
  TRACK 02 AUDIO
    TITLE "7:cjc057_06356"
    INDEX 01 00:00:15
  TRACK 03 AUDIO
    TITLE "0:"
    INDEX 01 00:01:36
  TRACK 04 AUDIO
    TITLE "8:cjc057_06357"
    INDEX 01 00:01:62
  TRACK 05 AUDIO
    TITLE "0:"
    INDEX 01 00:03:12
  TRACK 06 AUDIO
    TITLE "9:cjc057_06358"
    INDEX 01 00:03:51
  TRACK 07 AUDIO
    TITLE "0:"
    INDEX 01 00:06:57
  TRACK 08 AUDIO
    TITLE "7:cjc057_06359"
    INDEX 01 00:07:62
  TRACK 09 AUDIO
    TITLE "0:"
    INDEX 01 00:09:00
  TRACK 10 AUDIO
    TITLE "8:cjc057_06360"
    INDEX 01 00:09:28
  TRACK 11 AUDIO
    TITLE "0:"
    INDEX 01 00:10:66
  TRACK 12 AUDIO
    TITLE "9:cjc057_06361"
    INDEX 01 00:11:31
  TRACK 13 AUDIO
    TITLE "0:"
    INDEX 01 00:14:60
  TRACK 14 AUDIO
    TITLE "7:cjc057_06362"
    INDEX 01 00:15:62
  TRACK 15 AUDIO
    TITLE "0:"
    INDEX 01 00:17:00
  TRACK 16 AUDIO
    TITLE "8:cjc057_06363"
    INDEX 01 00:17:27
  TRACK 17 AUDIO
    TITLE "0:"
    INDEX 01 00:18:66
  TRACK 18 AUDIO
    TITLE "9:cjc057_06364"
    INDEX 01 00:19:30
  TRACK 19 AUDIO
    TITLE "0:"
    INDEX 01 00:22:66
  TRACK 20 AUDIO
    TITLE "7:cjc057_06365"
    INDEX 01 00:23:69
  TRACK 21 AUDIO
    TITLE "0:"
    INDEX 01 00:25:05
  TRACK 22 AUDIO
    TITLE "8:cjc057_06366"
    INDEX 01 00:25:35
  TRACK 23 AUDIO
    TITLE "0:"
    INDEX 01 00:28:00
  TRACK 24 AUDIO
    TITLE "9:cjc057_06367"
    INDEX 01 00:28:41
  TRACK 25 AUDIO
    TITLE "0:"
    INDEX 01 00:31:45
  TRACK 26 AUDIO
    TITLE "7:cjc057_06368"
    INDEX 01 00:32:47
  TRACK 27 AUDIO
    TITLE "0:"
    INDEX 01 00:33:48
  TRACK 28 AUDIO
    TITLE "8:cjc057_06369"
    INDEX 01 00:34:00
  TRACK 29 AUDIO
    TITLE "0:"
    INDEX 01 00:34:73
  TRACK 30 AUDIO
    TITLE "9:cjc057_06370"
    INDEX 01 00:35:37
  TRACK 31 AUDIO
    TITLE "0:"
    INDEX 01 00:38:55
  TRACK 32 AUDIO
    TITLE "7:cjc057_06371"
    INDEX 01 00:39:56
  TRACK 33 AUDIO
    TITLE "0:"
    INDEX 01 00:40:70
  TRACK 34 AUDIO
    TITLE "8:cjc057_06372"
    INDEX 01 00:41:22
  TRACK 35 AUDIO
    TITLE "0:"
    INDEX 01 00:43:21
  TRACK 36 AUDIO
    TITLE "9:cjc057_06373"
    INDEX 01 00:43:60
  TRACK 37 AUDIO
    TITLE "0:"
    INDEX 01 00:46:70
  TRACK 38 AUDIO
    TITLE "7:cjc057_06374"
    INDEX 01 00:47:74
  TRACK 39 AUDIO
    TITLE "0:"
    INDEX 01 00:49:04
  TRACK 40 AUDIO
    TITLE "8:cjc057_06375"
    INDEX 01 00:49:31
  TRACK 41 AUDIO
    TITLE "0:"
    INDEX 01 00:50:33
  TRACK 42 AUDIO
    TITLE "9:cjc057_06376"
    INDEX 01 00:50:70
  TRACK 43 AUDIO
    TITLE "0:"
    INDEX 01 00:53:58
  TRACK 44 AUDIO
    TITLE "7:cjc057_06377"
    INDEX 01 00:54:60
  TRACK 45 AUDIO
    TITLE "0:"
    INDEX 01 00:56:00
  TRACK 46 AUDIO
    TITLE "8:cjc057_06378"
    INDEX 01 00:56:25
  TRACK 47 AUDIO
    TITLE "0:"
    INDEX 01 00:57:37
  TRACK 48 AUDIO
    TITLE "9:cjc057_06379"
    INDEX 01 00:58:01
  TRACK 49 AUDIO
    TITLE "0:"
    INDEX 01 01:01:48
  TRACK 50 AUDIO
    TITLE "7:cjc057_06380"
    INDEX 01 01:02:54
  TRACK 51 AUDIO
    TITLE "0:"
    INDEX 01 01:03:63
  TRACK 52 AUDIO
    TITLE "8:cjc057_06381"
    INDEX 01 01:04:17
  TRACK 53 AUDIO
    TITLE "0:"
    INDEX 01 01:05:40
  TRACK 54 AUDIO
    TITLE "9:cjc057_06382"
    INDEX 01 01:05:73
  TRACK 55 AUDIO
    TITLE "0:"
    INDEX 01 01:08:66
  TRACK 56 AUDIO
    TITLE "7:cjc057_06383"
    INDEX 01 01:09:67
  TRACK 57 AUDIO
    TITLE "0:"
    INDEX 01 01:11:05
  TRACK 58 AUDIO
    TITLE "8:cjc057_06384"
    INDEX 01 01:11:33
  TRACK 59 AUDIO
    TITLE "0:"
    INDEX 01 01:12:36
  TRACK 60 AUDIO
    TITLE "9:cjc057_06385"
    INDEX 01 01:13:00
  TRACK 61 AUDIO
    TITLE "0:"
    INDEX 01 01:16:58
  TRACK 62 AUDIO
    TITLE "7:cjc057_06386"
    INDEX 01 01:17:59
  TRACK 63 AUDIO
    TITLE "0:"
    INDEX 01 01:19:03
  TRACK 64 AUDIO
    TITLE "8:cjc057_06387"
    INDEX 01 01:19:32
  TRACK 65 AUDIO
    TITLE "0:"
    INDEX 01 01:20:51
  TRACK 66 AUDIO
    TITLE "9:cjc057_06388"
    INDEX 01 01:21:18
  TRACK 67 AUDIO
    TITLE "0:"
    INDEX 01 01:24:45
  TRACK 68 AUDIO
    TITLE "7:cjc057_06389"
    INDEX 01 01:25:47
  TRACK 69 AUDIO
    TITLE "0:"
    INDEX 01 01:26:60
  TRACK 70 AUDIO
    TITLE "8:cjc057_06390"
    INDEX 01 01:27:12
  TRACK 71 AUDIO
    TITLE "0:"
    INDEX 01 01:29:09
  TRACK 72 AUDIO
    TITLE "9:cjc057_06391"
    INDEX 01 01:29:48
  TRACK 73 AUDIO
    TITLE "0:"
    INDEX 01 01:33:15
